<?xml version="1.0" encoding="UTF-8" standalone="no"?>
<!-- Created with Inkscape (http://www.inkscape.org/) -->

<svg
   version="1.1"
   id="svg1"
   width="496.84"
   height="155.26666"
   viewBox="0 0 496.84 155.26666"
   sodipodi:docname="K-Aqua_KWT_GmbH_4c_Vector.eps"
   xmlns:inkscape="http://www.inkscape.org/namespaces/inkscape"
   xmlns:sodipodi="http://sodipodi.sourceforge.net/DTD/sodipodi-0.dtd"
   xmlns="http://www.w3.org/2000/svg"
   xmlns:svg="http://www.w3.org/2000/svg">
  <defs
     id="defs1" />
  <sodipodi:namedview
     id="namedview1"
     pagecolor="#ffffff"
     bordercolor="#000000"
     borderopacity="0.25"
     inkscape:showpageshadow="2"
     inkscape:pageopacity="0.0"
     inkscape:pagecheckerboard="0"
     inkscape:deskcolor="#d1d1d1">
    <inkscape:page
       x="0"
       y="0"
       inkscape:label="1"
       id="page1"
       width="496.84"
       height="155.26666"
       margin="0"
       bleed="0" />
  </sodipodi:namedview>
  <g
     id="g1"
     inkscape:groupmode="layer"
     inkscape:label="1">
    <g
       id="group-R5">
      <path
         id="path2"
         d="M 0,1018.93 V 2.03125 H 1133.39 V 1164.48 C 606.727,1154.62 183.816,1064.8 0,1018.93"
         style="fill:#656a6f;fill-opacity:1;fill-rule:nonzero;stroke:none"
         transform="matrix(0.13333333,0,0,-0.13333333,0,155.26667)" />
      <path
         id="path3"
         d="M 295.344,880.215 H 910.77 L 569.793,539.234 910.77,198.258 H 295.344 v 681.957"
         style="fill:#542791;fill-opacity:1;fill-rule:nonzero;stroke:none"
         transform="matrix(0.13333333,0,0,-0.13333333,0,155.26667)" />
      <path
         id="path4"
         d="M 295.344,880.215 H 910.77 L 569.793,539.234 910.77,198.258 H 295.344 Z"
         style="fill:none;stroke:#ffffff;stroke-width:25;stroke-linecap:butt;stroke-linejoin:miter;stroke-miterlimit:10;stroke-dasharray:none;stroke-opacity:1"
         transform="matrix(0.13333333,0,0,-0.13333333,0,155.26667)" />
      <path
         id="path5"
         d="m 1004.75,634.465 h 388.63 V 456.984 h -388.63 v 177.481"
         style="fill:#542791;fill-opacity:1;fill-rule:nonzero;stroke:none"
         transform="matrix(0.13333333,0,0,-0.13333333,0,155.26667)" />
      <path
         id="path6"
         d="m 1004.75,634.465 h 388.63 V 456.984 h -388.63 z"
         style="fill:none;stroke:#ffffff;stroke-width:20;stroke-linecap:butt;stroke-linejoin:miter;stroke-miterlimit:10;stroke-dasharray:none;stroke-opacity:1"
         transform="matrix(0.13333333,0,0,-0.13333333,0,155.26667)" />
      <path
         id="path7"
         d="M 1884.67,504.176 1771.83,762.871 1653.57,504.176 Z m 46.81,-107.914 h -325.71 l -84.75,-184.785 h -123.69 l 376.47,808.603 363.16,-808.603 h -125.65 l -79.83,184.785"
         style="fill:#656a6f;fill-opacity:1;fill-rule:nonzero;stroke:none"
         transform="matrix(0.13333333,0,0,-0.13333333,0,155.26667)" />
      <path
         id="path8"
         d="m 2271.27,453.914 c 0,-46.328 12.48,-83.937 37.45,-112.848 24.96,-29.566 56.67,-44.347 95.1,-44.347 40.73,0 73.74,14.125 99.05,42.386 25.61,28.575 38.42,65.692 38.42,111.36 0,44.996 -12.64,82.117 -37.93,111.359 -25.31,28.574 -58.15,42.867 -98.55,42.867 -38.12,0 -69.97,-14.457 -95.6,-43.355 -25.29,-29.242 -37.94,-65.047 -37.94,-107.422 z M 2534.4,2.03906 V 265.188 c -44.03,-45.008 -94.28,-67.512 -150.78,-67.512 -64.73,0 -118.44,23.82 -161.14,71.449 -43.03,47.965 -64.54,107.914 -64.54,179.855 0,72.926 21.51,133.868 64.54,182.813 43.37,48.613 97.73,72.926 163.11,72.926 55.51,0 105.12,-21.848 148.81,-65.539 v 52.238 h 111.36 V 2.03906 H 2534.4"
         style="fill:#656a6f;fill-opacity:1;fill-rule:nonzero;stroke:none"
         transform="matrix(0.13333333,0,0,-0.13333333,0,155.26667)" />
      <path
         id="path9"
         d="M 2861.24,691.418 V 415.969 c 0,-79.496 31.37,-119.25 94.12,-119.25 62.74,0 94.11,39.754 94.11,119.25 v 275.449 h 110.87 V 413.5 c 0,-38.426 -4.76,-71.617 -14.29,-99.535 -9.19,-24.969 -25.12,-47.473 -47.8,-67.5 -37.44,-32.524 -85.08,-48.789 -142.89,-48.789 -57.49,0 -104.95,16.265 -142.41,48.789 -22.99,20.027 -39.25,42.531 -48.78,67.5 -9.2,22.34 -13.8,55.519 -13.8,99.535 v 277.918 h 110.87"
         style="fill:#656a6f;fill-opacity:1;fill-rule:nonzero;stroke:none"
         transform="matrix(0.13333333,0,0,-0.13333333,0,155.26667)" />
      <path
         id="path10"
         d="m 3350.6,452.922 c 0,-45.992 12.32,-83.438 36.95,-112.344 25.3,-29.246 57.16,-43.859 95.6,-43.859 41.06,0 74.23,14.125 99.53,42.386 25.3,29.231 37.94,66.352 37.94,111.36 0,44.996 -12.64,82.117 -37.94,111.359 -25.3,28.574 -58.15,42.867 -98.55,42.867 -38.11,0 -69.97,-14.457 -95.6,-43.355 -25.29,-29.242 -37.93,-65.383 -37.93,-108.414 z m 263.12,238.496 h 111.36 V 211.477 h -111.36 v 50.261 c -45.66,-42.711 -94.78,-64.062 -147.33,-64.062 -66.36,0 -121.21,23.976 -164.58,71.941 -43.04,48.946 -64.55,110.043 -64.55,183.305 0,71.941 21.51,131.887 64.55,179.851 43.03,47.969 96.9,71.946 161.62,71.946 55.85,0 105.94,-22.996 150.29,-68.989 v 55.688"
         style="fill:#656a6f;fill-opacity:1;fill-rule:nonzero;stroke:none"
         transform="matrix(0.13333333,0,0,-0.13333333,0,155.26667)" />
      <path
         id="path11"
         d="m 2833.65,2.08984 -38.19,68.21096 -24.69,-29.832 V 2.08984 h -19.39 V 135.07 h 19.39 V 89.4805 c 0,-4.9414 -0.2,-19.3789 -0.39,-23.5586 2.28,3.4179 11.02,14.4375 15.39,19.9492 l 39.32,49.1989 h 22.61 l -38.95,-48.2497 47.5,-84.73046 h -22.6"
         style="fill:#656a6f;fill-opacity:1;fill-rule:nonzero;stroke:none"
         transform="matrix(0.13333333,0,0,-0.13333333,0,155.26667)" />
      <path
         id="path12"
         d="m 2986.78,2.08984 h -20.14 l -20.7,85.87106 c -1.14,4.5586 -3.23,14.4371 -3.8,17.6681 -0.57,-3.231 -2.65,-13.1095 -3.8,-17.6681 L 2916.68,2.08984 h -19.75 L 2869.76,135.07 h 20.14 l 15.95,-83.9606 c 0.76,-4 2.47,-13.1094 3.05,-17.4805 0.75,4.3711 2.66,13.3008 3.6,17.2813 l 21.28,84.1598 h 17.1 l 21.65,-86.0505 c 0.96,-3.6211 2.47,-10.6406 3.24,-15.3906 0.94,4.9414 2.09,12.3516 2.65,15.5703 l 16.15,85.8708 h 19.38 L 2986.78,2.08984"
         style="fill:#656a6f;fill-opacity:1;fill-rule:nonzero;stroke:none"
         transform="matrix(0.13333333,0,0,-0.13333333,0,155.26667)" />
      <path
         id="path13"
         d="M 3093.95,115.512 V 2.08984 H 3074 V 115.512 h -38.75 v 19.558 h 97.45 v -19.558 h -38.75"
         style="fill:#656a6f;fill-opacity:1;fill-rule:nonzero;stroke:none"
         transform="matrix(0.13333333,0,0,-0.13333333,0,155.26667)" />
      <path
         id="path14"
         d="m 3265.9,0 c -34.38,0 -56.23,28.3086 -56.23,68.5898 0,40.2692 21.85,68.5702 56.23,68.5702 21.65,0 36.1,-8.738 45.21,-24.879 l -17.47,-10.832 c -6.85,10.832 -14.07,15.77 -27.74,15.77 -23.18,0 -35.91,-18.8088 -35.91,-48.6292 0,-29.8398 12.73,-48.6406 35.91,-48.6406 21.65,0 30.21,14.25 30.21,29.8321 v 0.5585 h -21.66 v 19.1915 h 41.98 V 54.1406 C 3316.43,19.9492 3295.53,0 3265.9,0"
         style="fill:#656a6f;fill-opacity:1;fill-rule:nonzero;stroke:none"
         transform="matrix(0.13333333,0,0,-0.13333333,0,155.26667)" />
      <path
         id="path15"
         d="M 3460.64,2.08984 V 58.5195 c 0,20.1407 -6.27,27.3516 -19.19,27.3516 -13.11,0 -19.19,-9.3008 -19.19,-25.4609 V 2.08984 h -19.57 V 58.5195 c 0,20.1407 -6.27,27.3516 -19.18,27.3516 -13.12,0 -19.19,-9.3008 -19.19,-25.4609 V 2.08984 h -19.57 V 101.828 h 19.57 v -9.496 c 4.94,7.2071 13.49,11.59 23.74,11.59 13.5,0 22.04,-5.1329 27.36,-14.6329 7.22,8.9297 15.01,14.6329 30.59,14.6329 23.17,0 34.19,-15.2032 34.19,-44.6525 V 2.08984 h -19.56"
         style="fill:#656a6f;fill-opacity:1;fill-rule:nonzero;stroke:none"
         transform="matrix(0.13333333,0,0,-0.13333333,0,155.26667)" />
      <path
         id="path16"
         d="m 3552.98,85.8711 c -9.3,0 -17.47,-6.2695 -22.61,-12.7305 V 31.1602 c 4.38,-5.8907 13.5,-13.1094 23.37,-13.1094 14.07,0 21.66,10.6289 21.66,31.7305 0,25.0781 -7.97,36.0898 -22.42,36.0898 z M 3555.65,0 c -10.07,0 -19.57,5.32813 -25.08,11.3984 V 2.08984 H 3511.2 V 130.512 l 19.37,10.066 V 92.332 c 7.22,6.6485 15.58,11.59 26.03,11.59 21.46,0 38.37,-15.5822 38.37,-53.5822 C 3594.97,16.1602 3576.35,0 3555.65,0"
         style="fill:#656a6f;fill-opacity:1;fill-rule:nonzero;stroke:none"
         transform="matrix(0.13333333,0,0,-0.13333333,0,155.26667)" />
      <path
         id="path17"
         d="M 3706.31,2.08984 V 61.3594 h -61.17 V 2.08984 h -19.95 V 135.07 h 19.95 V 81.3086 h 61.17 V 135.07 h 19.95 V 2.08984 h -19.95"
         style="fill:#656a6f;fill-opacity:1;fill-rule:nonzero;stroke:none"
         transform="matrix(0.13333333,0,0,-0.13333333,0,155.26667)" />
    </g>
  </g>
</svg>
